<!-- src/assets/cart-icon.svg -->
<svg
  width="24"
  height="24"
  viewBox="0 0 24 24"
  fill="none"
  xmlns="http://www.w3.org/2000/svg"
>
  <path
    d="M6 2C5.44772 2 5 2.44772 5 3V4H4C3.44772 4 3 4.44772 3 5V5.5C3 6.05228 3.44772 6.5 4 6.5H4.48215L5.49078 9.40952L5.98795 10.25H18.0121L18.5092 9.40952L19.5178 6.5H20C20.5523 6.5 21 6.05228 21 5.5V5C21 4.44772 20.5523 4 20 4H19V3C19 2.44772 18.5523 2 18 2H6ZM6 4H18V5H6V4ZM6 8H18L16.8974 10.5H7.10256L6 8ZM4 6.5V5.5H20V6.5H4ZM6 21C6 21.5523 6.44772 22 7 22C7.55228 22 8 21.5523 8 21C8 20.4477 7.55228 20 7 20C6.44772 20 6 20.4477 6 21ZM15 21C15 21.5523 15.4477 22 16 22C16.5523 22 17 21.5523 17 21C17 20.4477 16.5523 20 16 20C15.4477 20 15 20.4477 15 21ZM19 16H5V14H19V16ZM19 12H5V10H19V12Z"
    fill="currentColor"
  />
</svg>
